<svg xmlns="http://www.w3.org/2000/svg" xmlns:xlink="http://www.w3.org/1999/xlink" version="1.1" x="0px" y="0px" viewBox="0 0 14.9 15" style="enable-background:new 0 0 14.9 15;" xml:space="preserve" role="img" aria-labelledby="a646f6022uu4g29f0f4a8nniw87p4z2h"><desc id="a646f6022uu4g29f0f4a8nniw87p4z2h">facebook</desc>
<path d="M14.1,0H0.8C0.4,0,0,0.4,0,0.8c0,0,0,0,0,0v13.3C0,14.6,0.4,15,0.8,15h7.1V9.2H6V6.9h1.9V5.3c-0.2-1.5,0.9-2.8,2.4-3  c0.2,0,0.3,0,0.5,0c0.6,0,1.2,0,1.7,0.1v2h-1.2c-0.9,0-1.1,0.4-1.1,1.1v1.5h2.2l-0.3,2.3h-1.9V15h3.8c0.5,0,0.8-0.4,0.8-0.8V0.8  C14.9,0.4,14.5,0,14.1,0C14.1,0,14.1,0,14.1,0z"></path>
</svg>