<svg xmlns="http://www.w3.org/2000/svg" data-name="Layer 1" viewBox="0 0 22 22" role="img" aria-labelledby="a8cgna7g2jirv77v07y7004d9wdxtdhi"><desc id="a8cgna7g2jirv77v07y7004d9wdxtdhi">instagram</desc><path d="M6.47,0A6.49,6.49,0,0,0,0,6.47v9.06A6.49,6.49,0,0,0,6.47,22h9.06A6.49,6.49,0,0,0,22,15.53V6.47A6.49,6.49,0,0,0,15.53,0Zm0,2h9.06A4.47,4.47,0,0,1,20,6.47v9.06A4.47,4.47,0,0,1,15.53,20H6.47A4.47,4.47,0,0,1,2,15.53V6.47A4.47,4.47,0,0,1,6.47,2ZM16.91,4.19a.91.91,0,1,0,.9.9A.9.9,0,0,0,16.91,4.19ZM11,5a6,6,0,1,0,6,6A6,6,0,0,0,11,5Zm0,2a4,4,0,1,1-4,4A4,4,0,0,1,11,7Z"></path></svg>