<svg xmlns="http://www.w3.org/2000/svg" xmlns:xlink="http://www.w3.org/1999/xlink" version="1.1" x="0px" y="0px" viewBox="0 0 14.8 12.5" style="enable-background:new 0 0 14.8 12.5;" xml:space="preserve" role="img" aria-labelledby="aafx44yj831lc1a8tz87vvpb3vz61tef"><desc id="aafx44yj831lc1a8tz87vvpb3vz61tef">twitter</desc>
<path d="M14.8,1.5C14.2,1.7,13.6,1.9,13,2c0.7-0.4,1.2-1,1.4-1.8c-0.6,0.4-1.2,0.6-1.9,0.8c-0.6-0.6-1.4-1-2.2-1  c-1.7,0.1-3,1.5-3,3.2c0,0.2,0,0.5,0.1,0.7C4.8,3.8,2.5,2.6,1,0.6c-0.3,0.5-0.4,1-0.4,1.6c0,1.1,0.5,2,1.4,2.6c-0.5,0-1-0.1-1.4-0.4  l0,0c0,1.5,1,2.8,2.4,3.1C2.6,7.7,2.1,7.7,1.6,7.6C2,8.9,3.2,9.7,4.5,9.8c-1.3,1-2.9,1.5-4.5,1.3c1.4,0.9,3,1.4,4.7,1.4  c5.6,0,8.6-4.8,8.6-9c0-0.1,0-0.3,0-0.4C13.9,2.6,14.4,2.1,14.8,1.5z"></path>
</svg>